<svg xmlns="http://www.w3.org/2000/svg" viewBox="0 0 102.3 112" fill="#ff0403">
  <g>
    <path d="M42.89,0L20.7,112h20.82L64.31,0H42.89Z"/>
    <path d="M16.78,47.91c0-5.07,1.6-9.32,4.81-12.75,3.2-3.43,7.19-5.15,11.97-5.15s8.76,1.72,11.97,5.15c3.2,3.43,4.8,7.68,4.8,12.75s-1.6,9.32-4.8,12.75c-3.21,3.43-7.19,5.15-11.97,5.15s-8.76-1.72-11.97-5.15C18.38,57.23,16.78,52.98,16.78,47.91Z"/>
  </g>
  <g>
    <path d="M102.24,83.71V53.19c-11.11-5.95-79.14-16.1-80.92,20.53-1.81,37.42,27.17,35.8,27.17,35.8v2.95l-26.23.63V87.93h30.95l-.01,0,40.62.1,3.96-27.15s-.78.02-2.09.04c-3.95.07-12.78.22-20.14.33-1.33.03-2.61.04-3.81.06-.2,0-.4,0-.6,0h-.74c-3.39,0-8.62-1.11-12.43-4.77-.95-.9-1.81-1.95-2.52-3.17-2.36-4-5.38-10.55-1.23-18.32,5.54-10.34,43.78,0,43.78,0Z"/>
    <path d="M59.35,0l.06,83.71H38.59L16.4,0H59.35Z"/>
  </g>
</svg>